<svg width="323" height="38" viewBox="0 0 323 38" fill="none" xmlns="http://www.w3.org/2000/svg">
<g clip-path="url(#clip0_632_3361)">
<path d="M13.9884 31.9977C6.77363 31.9977 0.922886 26.1784 0.922886 19.0029C0.922886 11.8275 6.77363 6.00821 13.9884 6.00821C21.2032 6.00821 27.0539 11.8275 27.0539 19.0029C27.0539 26.1784 21.2032 31.9977 13.9884 31.9977ZM14 5C6.28027 5 0 11.2792 0 19.0029C0 26.7267 6.28027 33.0059 14 33.0059C21.7197 33.0059 28 26.7267 28 19.0029C28 11.2792 21.7197 5 14 5Z" fill="#8C191C"/>
<path d="M14.0174 27.5815C9.2869 27.5815 5.45605 23.7432 5.45605 19.0087C5.45605 14.2743 9.2869 10.436 14.0174 10.436C18.7479 10.436 22.5788 14.2743 22.5788 19.0087C22.5788 23.7432 18.7479 27.5815 14.0174 27.5815ZM22.9909 20.583C23.2579 19.0677 24.1633 17.7824 25.4229 16.9923C23.966 16.6798 22.6774 15.7777 21.8997 14.4393C21.4237 13.6139 21.1857 12.6941 21.1857 11.7744C21.1857 11.2201 21.2728 10.6718 21.4411 10.1412C20.1293 10.831 18.5622 10.9607 17.1169 10.436C15.6774 9.90534 14.563 8.7969 14.0058 7.41724C13.4428 8.7969 12.3284 9.91123 10.8773 10.4419C9.43781 10.9666 7.87645 10.831 6.56467 10.1412C6.733 10.6718 6.82006 11.2142 6.82006 11.7685C6.82006 12.6941 6.58209 13.6198 6.10033 14.457C5.32836 15.7836 4.0398 16.6857 2.58292 16.9982C3.83084 17.7824 4.73051 19.05 5.00912 20.5476L5.02653 20.6537C5.07297 20.9426 5.09618 21.2315 5.09618 21.5204C5.09618 22.7173 4.68408 23.867 3.96434 24.7986C5.43283 24.5981 6.94776 25.0049 8.12603 25.9837L8.16666 26.019C8.16666 26.019 8.19569 26.0426 8.20729 26.0544C9.33914 27.0391 9.97761 28.4423 10.0357 29.8986C11.034 28.7961 12.4619 28.1298 14.0116 28.1298C15.5439 28.1298 16.9718 28.7961 17.9701 29.8986C18.0282 28.4128 18.6957 26.986 19.8798 25.9896C21.058 25.0049 22.573 24.5981 24.0473 24.7927C23.3217 23.8611 22.9096 22.7114 22.9096 21.5145C22.9096 21.2079 22.9386 20.9013 22.9909 20.5947C22.9909 20.5947 22.9909 20.583 22.9909 20.5771V20.583Z" fill="#8C191C"/>
<path d="M22.1028 13.8439C22.5672 12.818 22.8284 11.7508 22.8284 10.8723C22.8284 10.2296 22.6891 9.69899 22.4279 9.35113C21.9693 10.0822 21.7255 11.0374 21.7255 11.9866C21.7255 12.647 21.8706 13.2778 22.1086 13.8439H22.1028ZM14.4121 28.5897C15.5556 30.2288 17.0995 31.3077 18.1095 31.1839C17.4071 29.8455 15.8632 28.7725 14.4121 28.5897ZM5.50829 14.5985C3.51161 14.7754 1.7471 15.6009 1.3466 16.5501C2.85572 16.6091 4.61443 15.7718 5.50829 14.5985ZM22.0099 9.02095C21.0813 8.55517 19.2587 9.02095 17.6625 10.1294C19.0962 10.4537 20.9187 9.99379 22.0099 9.02095ZM18.4867 30.1168C18.4867 30.4292 18.5448 30.7181 18.6086 31.0071C19.3574 30.5 19.8507 29.0201 19.8507 27.3398C19.8507 27.1098 19.8217 26.8681 19.8043 26.6263C19.0033 27.5048 18.4925 28.855 18.4925 30.1168H18.4867ZM1.24792 17.0454C1.30597 18.0654 2.65837 19.3979 4.48673 20.2469C4.05141 18.8613 2.68739 17.5053 1.24792 17.0454ZM26.665 16.5501C26.2645 15.6009 24.5058 14.7754 22.5033 14.5985C23.3914 15.7718 25.1501 16.6032 26.665 16.5501ZM9.89635 31.178C10.9121 31.3018 12.4502 30.2288 13.5937 28.5838C12.1426 28.7666 10.5987 29.8396 9.89635 31.178ZM6.28607 11.9866C6.28607 11.0374 6.04229 10.0822 5.58375 9.35113C5.32255 9.69899 5.18325 10.2296 5.18325 10.8723C5.18325 11.7508 5.43864 12.8239 5.90879 13.8439C6.14096 13.2837 6.29187 12.6529 6.29187 11.9866H6.28607ZM10.3433 10.1294C8.7471 9.02095 6.91874 8.56106 5.99585 9.02095C7.09287 10.0056 8.8922 10.4655 10.3433 10.1294ZM23.5191 20.241C25.3474 19.392 26.6998 18.0595 26.7579 17.0395C25.3184 17.4935 23.9544 18.8554 23.5191 20.241ZM8.15506 27.328C8.15506 29.0142 8.64842 30.4941 9.39718 31.0012C9.45522 30.7122 9.51326 30.4233 9.51326 30.1168C9.51326 28.8491 9.00248 27.4989 8.20149 26.6204C8.18408 26.8563 8.15506 27.098 8.15506 27.328ZM11.1443 9.84049C12.4386 9.16835 13.5473 7.58233 13.7504 6.07886C12.7637 6.32059 11.6609 7.90661 11.1443 9.84049ZM16.8673 9.84049C16.3507 7.90661 15.2479 6.32059 14.2612 6.07886C14.4701 7.58233 15.573 9.16835 16.8673 9.84049ZM23.3565 21.2669C23.3565 22.6937 24.1343 24.2738 25.2604 25.1464C25.301 25.0049 25.33 24.8575 25.33 24.6925C25.33 23.6842 24.5638 22.2751 23.374 21.0782C23.374 21.1431 23.3565 21.202 23.3565 21.2669ZM20.4718 26.0426C22.3698 26.5379 24.2562 26.3551 24.9701 25.6004C23.6003 25.0521 21.7139 25.2408 20.4718 26.0426ZM3.04146 25.6063C3.75539 26.361 5.64179 26.5438 7.5398 26.0426C6.29768 25.2467 4.41127 25.058 3.04146 25.6063ZM4.65506 21.2728C4.65506 21.2079 4.64345 21.1431 4.63764 21.0782C3.44776 22.2692 2.68159 23.6842 2.68159 24.6925C2.68159 24.8575 2.71061 25.0108 2.75124 25.1464C3.87728 24.2738 4.65506 22.6996 4.65506 21.2728Z" fill="#8C191C"/>
<path d="M13.1119 18.4781L12.6128 17.8296C12.4793 17.9888 12.369 18.1716 12.2993 18.372L13.1177 18.4781H13.1119Z" fill="#8C191C"/>
<path d="M12.4851 17.6703L10.5871 15.2117C9.21724 14.8108 7.85323 14.6398 6.64013 14.6752C7.21476 15.7895 8.05058 16.9275 9.10116 17.9534L12.0904 18.3484C12.1774 18.0949 12.3109 17.8708 12.4793 17.6703H12.4851Z" fill="#8C191C"/>
<path d="M12.1774 18.9971C12.1774 19.2152 12.2239 19.4216 12.2935 19.6161L12.99 19.174L12.1774 18.9971Z" fill="#8C191C"/>
<path d="M11.9801 18.997C11.9801 18.997 11.9801 18.9676 11.9801 18.9558L8.95605 18.2954C7.64428 18.8673 6.48922 19.6161 5.57214 20.4239C6.72719 20.9073 8.09701 21.2434 9.5597 21.3495L12.1194 19.7222C12.0323 19.4982 11.9801 19.2506 11.9801 18.997Z" fill="#8C191C"/>
<path d="M13.0887 20.5772L13.3383 19.7871L12.607 20.1703C12.7405 20.3354 12.903 20.471 13.0887 20.5772Z" fill="#8C191C"/>
<path d="M12.4328 20.2588L9.67578 21.7033C9.03731 22.9827 8.63101 24.3034 8.45688 25.5121C9.65257 25.1407 10.9237 24.5098 12.1136 23.649L13.0307 20.7658C12.7985 20.6361 12.5954 20.4651 12.4328 20.2588Z" fill="#8C191C"/>
<path d="M14.8939 18.4782L15.7239 18.3662C15.6484 18.1657 15.5381 17.983 15.4046 17.8179L14.8997 18.4782H14.8939Z" fill="#8C191C"/>
<path d="M17.3259 15.3179L15.5207 17.6645C15.6949 17.8591 15.8284 18.089 15.9154 18.3425L19.0439 17.9239C20.0597 16.9511 20.8723 15.8662 21.4469 14.8049C20.1816 14.7401 18.7537 14.9052 17.3259 15.312V15.3179Z" fill="#8C191C"/>
<path d="M14.3599 18.0242L14.9171 17.4169C14.7371 17.3108 14.5398 17.2341 14.325 17.1987L14.3599 18.0242Z" fill="#8C191C"/>
<path d="M17.0008 11.0139C15.9967 11.7745 15.0099 12.8122 14.1857 14.0386L14.3134 17.0042C14.5804 17.0455 14.83 17.1339 15.0506 17.2695L17.1633 14.9524C17.3143 13.5492 17.2446 12.1931 17.0008 11.0139Z" fill="#8C191C"/>
<path d="M13.0945 17.4169L13.6517 18.0242L13.6866 17.1987C13.4718 17.2341 13.2745 17.3166 13.0945 17.4169Z" fill="#8C191C"/>
<path d="M13.6924 17.0043L13.8201 13.8912C13.0307 12.712 12.1078 11.7156 11.1559 10.9609C10.8773 12.1873 10.7902 13.6023 10.9353 15.0645L12.961 17.2755C13.1816 17.1399 13.4312 17.0515 13.6924 17.0102V17.0043Z" fill="#8C191C"/>
<path d="M15.7239 19.622C15.7935 19.4275 15.84 19.2211 15.84 18.9971L15.0216 19.1798L15.7239 19.6279V19.622Z" fill="#8C191C"/>
<path d="M18.9221 18.3191L16.0315 18.9559C16.0315 18.9559 16.0315 18.9853 16.0315 19.003C16.0315 19.2624 15.9793 19.5042 15.8922 19.7341L18.5564 21.4263C19.961 21.3319 21.2844 21.0253 22.4046 20.5831C21.4701 19.7223 20.2745 18.9264 18.9163 18.325L18.9221 18.3191Z" fill="#8C191C"/>
<path d="M15.4046 20.1703L14.6675 19.7871L14.9171 20.5831C15.1028 20.4769 15.2653 20.3354 15.4046 20.1762V20.1703Z" fill="#8C191C"/>
<path d="M18.1849 21.6207L15.5846 20.2646C15.4163 20.471 15.2131 20.642 14.9809 20.7717L15.9328 23.7728C17.0763 24.61 18.2952 25.235 19.4444 25.6182C19.2993 24.498 18.4461 22.2752 18.1849 21.6266V21.6207Z" fill="#8C191C"/>
<path d="M14.325 20.8012L14.0058 20.0288L13.6866 20.8012C13.791 20.8189 13.8955 20.8366 14.0058 20.8366C14.1161 20.8366 14.2206 20.8248 14.3192 20.8071L14.325 20.8012Z" fill="#8C191C"/>
<path d="M14.0058 21.0313C13.8665 21.0313 13.7388 21.0195 13.6053 20.99L12.4154 23.8731C12.7521 25.2587 13.2861 26.5263 13.9245 27.564C14.6036 26.5027 15.1783 25.1997 15.5381 23.767L14.3947 20.99C14.267 21.0136 14.1335 21.0313 14 21.0313H14.0058Z" fill="#8C191C"/>
<path d="M5.03814 19.003C5.03814 14.0562 9.06053 10.0352 14.0116 10.0352C18.9627 10.0352 22.9851 14.0562 22.9851 19.003C22.9851 23.9497 18.9627 27.9707 14.0116 27.9707C9.06053 27.9707 5.03814 23.9438 5.03814 19.003ZM4.64925 19.003C4.64925 24.1678 8.85157 28.3658 14.0116 28.3658C19.1716 28.3658 23.374 24.1619 23.374 19.003C23.374 13.844 19.1716 9.64014 14.0116 9.64014C8.85157 9.64014 4.64925 13.8381 4.64925 19.003Z" fill="#8C191C"/>
<path d="M15.8748 18.9971C15.8748 20.023 15.0448 20.8544 14.0174 20.8544C12.9901 20.8544 12.16 20.023 12.16 18.9971C12.16 17.9712 12.9959 17.1399 14.0174 17.1399C15.039 17.1399 15.8748 17.9712 15.8748 18.9971Z" fill="#8C191C"/>
</g>
<path d="M35.3125 7.25H43.3594C45.0885 7.25 46.5625 7.51042 47.7812 8.03125C49 8.55208 49.9323 9.32292 50.5781 10.3438C51.2344 11.3542 51.5625 12.6042 51.5625 14.0938C51.5625 15.2292 51.3542 16.2292 50.9375 17.0938C50.5208 17.9583 49.9323 18.6875 49.1719 19.2812C48.4115 19.8646 47.5052 20.3177 46.4531 20.6406L45.2656 21.2188H38.0312L38 18.1094H43.4219C44.3594 18.1094 45.1406 17.9427 45.7656 17.6094C46.3906 17.276 46.8594 16.8229 47.1719 16.25C47.4948 15.6667 47.6562 15.0104 47.6562 14.2812C47.6562 13.4896 47.5 12.8021 47.1875 12.2188C46.8854 11.625 46.4167 11.1719 45.7812 10.8594C45.1458 10.5365 44.3385 10.375 43.3594 10.375H39.2344V30H35.3125V7.25ZM48.2969 30L42.9531 19.7812L47.0625 19.7656L52.4844 29.7969V30H48.2969ZM59.0312 11.7969V30H55.25V11.7969H59.0312ZM70.5312 15.5312L65.0625 30H61.25L68.5781 11.7969H71.1094L70.5312 15.5312ZM75.5781 30L70.0781 15.5L69.5 11.7969H72.0781L79.3906 30H75.5781ZM75.3438 23.25V26.0781H64.9375V23.25H75.3438ZM93.8125 27.0156V30H83.9531V27.0156H93.8125ZM85.1406 11.7969V30H81.375V11.7969H85.1406ZM103.641 11.7969V30H99.875V11.7969H103.641ZM109.703 11.7969V14.7969H93.8906V11.7969H109.703ZM128.031 20.4688V21.3438C128.031 22.7292 127.833 23.9688 127.438 25.0625C127.042 26.1562 126.479 27.0938 125.75 27.875C125.031 28.6458 124.167 29.2344 123.156 29.6406C122.146 30.0469 121.031 30.25 119.812 30.25C118.594 30.25 117.479 30.0469 116.469 29.6406C115.458 29.2344 114.583 28.6458 113.844 27.875C113.104 27.0938 112.531 26.1562 112.125 25.0625C111.729 23.9688 111.531 22.7292 111.531 21.3438V20.4688C111.531 19.0833 111.729 17.8438 112.125 16.75C112.531 15.6562 113.099 14.7188 113.828 13.9375C114.557 13.1562 115.427 12.5625 116.438 12.1562C117.448 11.75 118.562 11.5469 119.781 11.5469C121.01 11.5469 122.125 11.75 123.125 12.1562C124.135 12.5625 125.005 13.1562 125.734 13.9375C126.474 14.7188 127.042 15.6562 127.438 16.75C127.833 17.8438 128.031 19.0833 128.031 20.4688ZM124.266 21.3438V20.4375C124.266 19.4896 124.167 18.651 123.969 17.9219C123.771 17.1927 123.474 16.5781 123.078 16.0781C122.693 15.5781 122.224 15.1979 121.672 14.9375C121.12 14.6771 120.49 14.5469 119.781 14.5469C119.083 14.5469 118.453 14.6771 117.891 14.9375C117.339 15.1979 116.87 15.5781 116.484 16.0781C116.109 16.5781 115.818 17.1927 115.609 17.9219C115.411 18.651 115.312 19.4896 115.312 20.4375V21.3438C115.312 22.2812 115.411 23.1198 115.609 23.8594C115.818 24.5885 116.115 25.2083 116.5 25.7188C116.896 26.2188 117.37 26.6042 117.922 26.875C118.484 27.1354 119.115 27.2656 119.812 27.2656C120.521 27.2656 121.146 27.1354 121.688 26.875C122.24 26.6042 122.708 26.2188 123.094 25.7188C123.479 25.2083 123.771 24.5885 123.969 23.8594C124.167 23.1198 124.266 22.2812 124.266 21.3438Z" fill="#2E2D29"/>
<line x1="140.5" y1="5" x2="140.5" y2="33" stroke="black"/>
<path d="M160.625 20.7344H154.141V19.0938H160.625C161.979 19.0938 163.078 18.875 163.922 18.4375C164.776 17.9896 165.396 17.3854 165.781 16.625C166.177 15.8646 166.375 15.0104 166.375 14.0625C166.375 13.1354 166.177 12.2812 165.781 11.5C165.396 10.7188 164.776 10.0938 163.922 9.625C163.078 9.14583 161.979 8.90625 160.625 8.90625H154.812V30H152.891V7.25H160.625C162.292 7.25 163.693 7.53646 164.828 8.10938C165.974 8.68229 166.839 9.47917 167.422 10.5C168.005 11.5208 168.297 12.6979 168.297 14.0312C168.297 15.4271 168.005 16.6302 167.422 17.6406C166.839 18.6406 165.979 19.4062 164.844 19.9375C163.708 20.4688 162.302 20.7344 160.625 20.7344ZM183 26.0938V13.0938H184.875V30H183.078L183 26.0938ZM183.344 22.9688L184.312 22.9375C184.312 24 184.188 24.9792 183.938 25.875C183.688 26.7708 183.297 27.5521 182.766 28.2188C182.234 28.8854 181.547 29.401 180.703 29.7656C179.859 30.1302 178.844 30.3125 177.656 30.3125C176.833 30.3125 176.078 30.1979 175.391 29.9688C174.714 29.7292 174.13 29.3542 173.641 28.8438C173.151 28.3333 172.771 27.6719 172.5 26.8594C172.24 26.0469 172.109 25.0625 172.109 23.9062V13.0938H173.969V23.9375C173.969 24.8438 174.068 25.599 174.266 26.2031C174.474 26.8073 174.755 27.2917 175.109 27.6562C175.474 28.0208 175.891 28.2812 176.359 28.4375C176.828 28.5938 177.333 28.6719 177.875 28.6719C179.25 28.6719 180.333 28.4062 181.125 27.875C181.927 27.3438 182.495 26.6458 182.828 25.7812C183.172 24.9062 183.344 23.9688 183.344 22.9688ZM189.734 6H191.609V26.7188L191.484 30H189.734V6ZM203.375 21.3906V21.7188C203.375 22.9792 203.229 24.1354 202.938 25.1875C202.646 26.2396 202.224 27.151 201.672 27.9219C201.12 28.6823 200.443 29.2708 199.641 29.6875C198.849 30.1042 197.938 30.3125 196.906 30.3125C195.896 30.3125 195 30.1562 194.219 29.8438C193.438 29.5208 192.771 29.0677 192.219 28.4844C191.667 27.8906 191.224 27.1979 190.891 26.4062C190.557 25.6042 190.323 24.724 190.188 23.7656V19.5938C190.344 18.5729 190.594 17.6458 190.938 16.8125C191.281 15.9792 191.724 15.2604 192.266 14.6562C192.818 14.0521 193.474 13.5885 194.234 13.2656C195.005 12.9427 195.885 12.7812 196.875 12.7812C197.906 12.7812 198.823 12.9844 199.625 13.3906C200.438 13.7865 201.12 14.3646 201.672 15.125C202.224 15.875 202.646 16.7812 202.938 17.8438C203.229 18.8958 203.375 20.0781 203.375 21.3906ZM201.484 21.7188V21.3906C201.484 20.401 201.391 19.4844 201.203 18.6406C201.016 17.7969 200.719 17.0625 200.312 16.4375C199.917 15.8021 199.406 15.3073 198.781 14.9531C198.156 14.599 197.406 14.4219 196.531 14.4219C195.635 14.4219 194.87 14.5729 194.234 14.875C193.609 15.1667 193.089 15.5573 192.672 16.0469C192.266 16.526 191.943 17.0521 191.703 17.625C191.464 18.1979 191.286 18.7604 191.172 19.3125V24.1719C191.349 24.9531 191.656 25.6875 192.094 26.375C192.531 27.0625 193.12 27.6198 193.859 28.0469C194.599 28.4635 195.5 28.6719 196.562 28.6719C197.417 28.6719 198.151 28.4948 198.766 28.1406C199.391 27.7865 199.901 27.2969 200.297 26.6719C200.703 26.0469 201 25.3125 201.188 24.4688C201.385 23.625 201.484 22.7083 201.484 21.7188ZM209.594 6V30H207.734V6H209.594ZM216.781 13.0938V30H214.922V13.0938H216.781ZM214.594 8.20312C214.594 7.84896 214.703 7.55208 214.922 7.3125C215.151 7.0625 215.464 6.9375 215.859 6.9375C216.255 6.9375 216.568 7.0625 216.797 7.3125C217.036 7.55208 217.156 7.84896 217.156 8.20312C217.156 8.54688 217.036 8.84375 216.797 9.09375C216.568 9.33333 216.255 9.45312 215.859 9.45312C215.464 9.45312 215.151 9.33333 214.922 9.09375C214.703 8.84375 214.594 8.54688 214.594 8.20312ZM228.125 28.7031C228.917 28.7031 229.656 28.5573 230.344 28.2656C231.042 27.9635 231.615 27.5208 232.062 26.9375C232.521 26.3438 232.781 25.6198 232.844 24.7656H234.625C234.573 25.8385 234.245 26.7969 233.641 27.6406C233.047 28.474 232.266 29.1302 231.297 29.6094C230.339 30.0781 229.281 30.3125 228.125 30.3125C226.948 30.3125 225.906 30.099 225 29.6719C224.104 29.2448 223.354 28.651 222.75 27.8906C222.146 27.1198 221.688 26.224 221.375 25.2031C221.073 24.1719 220.922 23.0625 220.922 21.875V21.2188C220.922 20.0312 221.073 18.9271 221.375 17.9062C221.688 16.875 222.146 15.9792 222.75 15.2188C223.354 14.4479 224.104 13.849 225 13.4219C225.896 12.9948 226.932 12.7812 228.109 12.7812C229.318 12.7812 230.401 13.026 231.359 13.5156C232.328 14.0052 233.099 14.6979 233.672 15.5938C234.255 16.4896 234.573 17.5521 234.625 18.7812H232.844C232.792 17.875 232.552 17.0938 232.125 16.4375C231.698 15.7812 231.135 15.276 230.438 14.9219C229.74 14.5677 228.964 14.3906 228.109 14.3906C227.151 14.3906 226.333 14.5781 225.656 14.9531C224.979 15.3177 224.427 15.8229 224 16.4688C223.583 17.1042 223.276 17.8333 223.078 18.6562C222.88 19.4688 222.781 20.3229 222.781 21.2188V21.875C222.781 22.7812 222.875 23.6458 223.062 24.4688C223.26 25.2812 223.568 26.0052 223.984 26.6406C224.411 27.276 224.964 27.7812 225.641 28.1562C226.328 28.5208 227.156 28.7031 228.125 28.7031ZM248.672 26.9688V18.25C248.672 17.4479 248.505 16.7552 248.172 16.1719C247.839 15.5885 247.349 15.1406 246.703 14.8281C246.057 14.5156 245.26 14.3594 244.312 14.3594C243.438 14.3594 242.656 14.5156 241.969 14.8281C241.292 15.1302 240.755 15.5417 240.359 16.0625C239.974 16.5729 239.781 17.1406 239.781 17.7656L237.906 17.75C237.906 17.1146 238.062 16.5 238.375 15.9062C238.688 15.3125 239.13 14.7812 239.703 14.3125C240.276 13.8438 240.958 13.474 241.75 13.2031C242.552 12.9219 243.432 12.7812 244.391 12.7812C245.599 12.7812 246.661 12.9844 247.578 13.3906C248.505 13.7969 249.229 14.4062 249.75 15.2188C250.271 16.0312 250.531 17.0521 250.531 18.2812V26.4531C250.531 27.0365 250.573 27.6406 250.656 28.2656C250.75 28.8906 250.88 29.4062 251.047 29.8125V30H249.062C248.938 29.625 248.839 29.1562 248.766 28.5938C248.703 28.0208 248.672 27.4792 248.672 26.9688ZM249.109 20.1562L249.141 21.5938H245.469C244.51 21.5938 243.651 21.6823 242.891 21.8594C242.141 22.026 241.505 22.276 240.984 22.6094C240.464 22.9323 240.062 23.3229 239.781 23.7812C239.51 24.2396 239.375 24.7604 239.375 25.3438C239.375 25.9479 239.526 26.5 239.828 27C240.141 27.5 240.578 27.901 241.141 28.2031C241.714 28.4948 242.391 28.6406 243.172 28.6406C244.214 28.6406 245.13 28.4479 245.922 28.0625C246.724 27.6771 247.385 27.1719 247.906 26.5469C248.427 25.9219 248.776 25.2396 248.953 24.5L249.766 25.5781C249.63 26.099 249.38 26.6354 249.016 27.1875C248.661 27.7292 248.198 28.2396 247.625 28.7188C247.052 29.1875 246.375 29.5729 245.594 29.875C244.823 30.1667 243.948 30.3125 242.969 30.3125C241.865 30.3125 240.901 30.1042 240.078 29.6875C239.266 29.2708 238.63 28.7031 238.172 27.9844C237.724 27.2552 237.5 26.4323 237.5 25.5156C237.5 24.6823 237.677 23.9375 238.031 23.2812C238.385 22.6146 238.896 22.0521 239.562 21.5938C240.24 21.125 241.052 20.7708 242 20.5312C242.958 20.2812 244.031 20.1562 245.219 20.1562H249.109ZM261.938 13.0938V14.625H253.469V13.0938H261.938ZM256.578 8.75H258.438V25.8906C258.438 26.6719 258.542 27.2604 258.75 27.6562C258.958 28.0521 259.229 28.3177 259.562 28.4531C259.896 28.5885 260.255 28.6562 260.641 28.6562C260.922 28.6562 261.193 28.6406 261.453 28.6094C261.714 28.5677 261.948 28.526 262.156 28.4844L262.234 30.0625C262.005 30.1354 261.708 30.1927 261.344 30.2344C260.979 30.2865 260.615 30.3125 260.25 30.3125C259.531 30.3125 258.896 30.1823 258.344 29.9219C257.792 29.651 257.359 29.1927 257.047 28.5469C256.734 27.8906 256.578 27 256.578 25.875V8.75ZM267.938 13.0938V30H266.078V13.0938H267.938ZM265.75 8.20312C265.75 7.84896 265.859 7.55208 266.078 7.3125C266.307 7.0625 266.62 6.9375 267.016 6.9375C267.411 6.9375 267.724 7.0625 267.953 7.3125C268.193 7.55208 268.312 7.84896 268.312 8.20312C268.312 8.54688 268.193 8.84375 267.953 9.09375C267.724 9.33333 267.411 9.45312 267.016 9.45312C266.62 9.45312 266.307 9.33333 266.078 9.09375C265.859 8.84375 265.75 8.54688 265.75 8.20312ZM272.016 21.8125V21.2969C272.016 20.0677 272.193 18.9323 272.547 17.8906C272.901 16.849 273.406 15.9479 274.062 15.1875C274.729 14.4271 275.526 13.8385 276.453 13.4219C277.38 12.9948 278.411 12.7812 279.547 12.7812C280.693 12.7812 281.729 12.9948 282.656 13.4219C283.583 13.8385 284.38 14.4271 285.047 15.1875C285.714 15.9479 286.224 16.849 286.578 17.8906C286.932 18.9323 287.109 20.0677 287.109 21.2969V21.8125C287.109 23.0417 286.932 24.1771 286.578 25.2188C286.224 26.25 285.714 27.1458 285.047 27.9062C284.391 28.6667 283.599 29.2604 282.672 29.6875C281.745 30.1042 280.714 30.3125 279.578 30.3125C278.432 30.3125 277.396 30.1042 276.469 29.6875C275.542 29.2604 274.745 28.6667 274.078 27.9062C273.411 27.1458 272.901 26.25 272.547 25.2188C272.193 24.1771 272.016 23.0417 272.016 21.8125ZM273.875 21.2969V21.8125C273.875 22.7396 274 23.6198 274.25 24.4531C274.5 25.276 274.865 26.0104 275.344 26.6562C275.823 27.2917 276.417 27.7917 277.125 28.1562C277.833 28.5208 278.651 28.7031 279.578 28.7031C280.495 28.7031 281.302 28.5208 282 28.1562C282.708 27.7917 283.302 27.2917 283.781 26.6562C284.26 26.0104 284.62 25.276 284.859 24.4531C285.109 23.6198 285.234 22.7396 285.234 21.8125V21.2969C285.234 20.3802 285.109 19.5104 284.859 18.6875C284.62 17.8646 284.255 17.1302 283.766 16.4844C283.286 15.8385 282.693 15.3281 281.984 14.9531C281.276 14.5781 280.464 14.3906 279.547 14.3906C278.63 14.3906 277.818 14.5781 277.109 14.9531C276.411 15.3281 275.818 15.8385 275.328 16.4844C274.849 17.1302 274.484 17.8646 274.234 18.6875C273.995 19.5104 273.875 20.3802 273.875 21.2969ZM292.844 16.7031V30H290.984V13.0938H292.766L292.844 16.7031ZM292.422 20.5L291.594 20.0312C291.656 19.0312 291.859 18.0938 292.203 17.2188C292.547 16.3438 293.01 15.5729 293.594 14.9062C294.188 14.2396 294.88 13.7188 295.672 13.3438C296.474 12.9688 297.359 12.7812 298.328 12.7812C299.172 12.7812 299.927 12.8958 300.594 13.125C301.26 13.3542 301.828 13.7188 302.297 14.2188C302.766 14.7188 303.12 15.3594 303.359 16.1406C303.609 16.9219 303.734 17.875 303.734 19V30H301.859V18.9844C301.859 17.8177 301.698 16.9062 301.375 16.25C301.052 15.5833 300.594 15.1094 300 14.8281C299.406 14.5469 298.703 14.4062 297.891 14.4062C296.995 14.4062 296.208 14.6042 295.531 15C294.865 15.3854 294.302 15.8906 293.844 16.5156C293.396 17.1302 293.052 17.7917 292.812 18.5C292.573 19.1979 292.443 19.8646 292.422 20.5ZM318.703 25.6875C318.703 25.2292 318.589 24.776 318.359 24.3281C318.13 23.8802 317.688 23.4688 317.031 23.0938C316.385 22.7188 315.432 22.401 314.172 22.1406C313.234 21.9323 312.396 21.6979 311.656 21.4375C310.927 21.1771 310.312 20.8646 309.812 20.5C309.312 20.1354 308.932 19.6979 308.672 19.1875C308.411 18.6771 308.281 18.0729 308.281 17.375C308.281 16.75 308.417 16.1615 308.688 15.6094C308.969 15.0469 309.365 14.5573 309.875 14.1406C310.396 13.7135 311.021 13.3802 311.75 13.1406C312.49 12.901 313.318 12.7812 314.234 12.7812C315.536 12.7812 316.651 13.0052 317.578 13.4531C318.516 13.8906 319.229 14.4896 319.719 15.25C320.219 16.0104 320.469 16.8698 320.469 17.8281H318.609C318.609 17.2448 318.438 16.6927 318.094 16.1719C317.76 15.651 317.266 15.224 316.609 14.8906C315.964 14.5573 315.172 14.3906 314.234 14.3906C313.266 14.3906 312.479 14.5365 311.875 14.8281C311.271 15.1198 310.828 15.4896 310.547 15.9375C310.276 16.3854 310.141 16.849 310.141 17.3281C310.141 17.7031 310.198 18.0469 310.312 18.3594C310.438 18.6615 310.656 18.9427 310.969 19.2031C311.292 19.4635 311.75 19.7083 312.344 19.9375C312.938 20.1667 313.708 20.3906 314.656 20.6094C316.021 20.9115 317.135 21.2812 318 21.7188C318.875 22.1458 319.521 22.6771 319.938 23.3125C320.354 23.9375 320.562 24.6979 320.562 25.5938C320.562 26.2917 320.417 26.9323 320.125 27.5156C319.833 28.0885 319.411 28.5833 318.859 29C318.318 29.4167 317.661 29.7396 316.891 29.9688C316.13 30.1979 315.276 30.3125 314.328 30.3125C312.901 30.3125 311.693 30.0781 310.703 29.6094C309.724 29.1302 308.979 28.5052 308.469 27.7344C307.969 26.9531 307.719 26.125 307.719 25.25H309.578C309.641 26.125 309.917 26.8177 310.406 27.3281C310.896 27.8281 311.495 28.1823 312.203 28.3906C312.922 28.599 313.63 28.7031 314.328 28.7031C315.286 28.7031 316.089 28.5625 316.734 28.2812C317.38 28 317.87 27.6302 318.203 27.1719C318.536 26.7135 318.703 26.2188 318.703 25.6875Z" fill="black"/>
<defs>
<clipPath id="clip0_632_3361">
<rect width="28" height="28" fill="white" transform="translate(0 5)"/>
</clipPath>
</defs>
</svg>
