<svg width="320" height="38" viewBox="0 0 320 38" fill="none" xmlns="http://www.w3.org/2000/svg">
<g clip-path="url(#clip0_632_3415)">
<path d="M13.9884 31.9977C6.77363 31.9977 0.922886 26.1784 0.922886 19.0029C0.922886 11.8275 6.77363 6.00821 13.9884 6.00821C21.2032 6.00821 27.0539 11.8275 27.0539 19.0029C27.0539 26.1784 21.2032 31.9977 13.9884 31.9977ZM14 5C6.28027 5 0 11.2792 0 19.0029C0 26.7267 6.28027 33.0059 14 33.0059C21.7197 33.0059 28 26.7267 28 19.0029C28 11.2792 21.7197 5 14 5Z" fill="#8C191C"/>
<path d="M14.0174 27.5815C9.2869 27.5815 5.45605 23.7432 5.45605 19.0087C5.45605 14.2743 9.2869 10.436 14.0174 10.436C18.7479 10.436 22.5788 14.2743 22.5788 19.0087C22.5788 23.7432 18.7479 27.5815 14.0174 27.5815ZM22.9909 20.583C23.2579 19.0677 24.1633 17.7824 25.4229 16.9923C23.966 16.6798 22.6774 15.7777 21.8997 14.4393C21.4237 13.6139 21.1857 12.6941 21.1857 11.7744C21.1857 11.2201 21.2728 10.6718 21.4411 10.1412C20.1293 10.831 18.5622 10.9607 17.1169 10.436C15.6774 9.90534 14.563 8.7969 14.0058 7.41724C13.4428 8.7969 12.3284 9.91123 10.8773 10.4419C9.43781 10.9666 7.87645 10.831 6.56467 10.1412C6.733 10.6718 6.82006 11.2142 6.82006 11.7685C6.82006 12.6941 6.58209 13.6198 6.10033 14.457C5.32836 15.7836 4.0398 16.6857 2.58292 16.9982C3.83084 17.7824 4.73051 19.05 5.00912 20.5476L5.02653 20.6537C5.07297 20.9426 5.09618 21.2315 5.09618 21.5204C5.09618 22.7173 4.68408 23.867 3.96434 24.7986C5.43283 24.5981 6.94776 25.0049 8.12603 25.9837L8.16666 26.019C8.16666 26.019 8.19569 26.0426 8.20729 26.0544C9.33914 27.0391 9.97761 28.4423 10.0357 29.8986C11.034 28.7961 12.4619 28.1298 14.0116 28.1298C15.5439 28.1298 16.9718 28.7961 17.9701 29.8986C18.0282 28.4128 18.6957 26.986 19.8798 25.9896C21.058 25.0049 22.573 24.5981 24.0473 24.7927C23.3217 23.8611 22.9096 22.7114 22.9096 21.5145C22.9096 21.2079 22.9386 20.9013 22.9909 20.5947C22.9909 20.5947 22.9909 20.583 22.9909 20.5771V20.583Z" fill="#8C191C"/>
<path d="M22.1028 13.8439C22.5672 12.818 22.8284 11.7508 22.8284 10.8723C22.8284 10.2296 22.6891 9.69899 22.4279 9.35113C21.9693 10.0822 21.7255 11.0374 21.7255 11.9866C21.7255 12.647 21.8706 13.2778 22.1086 13.8439H22.1028ZM14.4121 28.5897C15.5556 30.2288 17.0995 31.3077 18.1095 31.1839C17.4071 29.8455 15.8632 28.7725 14.4121 28.5897ZM5.50829 14.5985C3.51161 14.7754 1.7471 15.6009 1.3466 16.5501C2.85572 16.6091 4.61443 15.7718 5.50829 14.5985ZM22.0099 9.02095C21.0813 8.55517 19.2587 9.02095 17.6625 10.1294C19.0962 10.4537 20.9187 9.99379 22.0099 9.02095ZM18.4867 30.1168C18.4867 30.4292 18.5448 30.7181 18.6086 31.0071C19.3574 30.5 19.8507 29.0201 19.8507 27.3398C19.8507 27.1098 19.8217 26.8681 19.8043 26.6263C19.0033 27.5048 18.4925 28.855 18.4925 30.1168H18.4867ZM1.24792 17.0454C1.30597 18.0654 2.65837 19.3979 4.48673 20.2469C4.05141 18.8613 2.68739 17.5053 1.24792 17.0454ZM26.665 16.5501C26.2645 15.6009 24.5058 14.7754 22.5033 14.5985C23.3914 15.7718 25.1501 16.6032 26.665 16.5501ZM9.89635 31.178C10.9121 31.3018 12.4502 30.2288 13.5937 28.5838C12.1426 28.7666 10.5987 29.8396 9.89635 31.178ZM6.28607 11.9866C6.28607 11.0374 6.04229 10.0822 5.58375 9.35113C5.32255 9.69899 5.18325 10.2296 5.18325 10.8723C5.18325 11.7508 5.43864 12.8239 5.90879 13.8439C6.14096 13.2837 6.29187 12.6529 6.29187 11.9866H6.28607ZM10.3433 10.1294C8.7471 9.02095 6.91874 8.56106 5.99585 9.02095C7.09287 10.0056 8.8922 10.4655 10.3433 10.1294ZM23.5191 20.241C25.3474 19.392 26.6998 18.0595 26.7579 17.0395C25.3184 17.4935 23.9544 18.8554 23.5191 20.241ZM8.15506 27.328C8.15506 29.0142 8.64842 30.4941 9.39718 31.0012C9.45522 30.7122 9.51326 30.4233 9.51326 30.1168C9.51326 28.8491 9.00248 27.4989 8.20149 26.6204C8.18408 26.8563 8.15506 27.098 8.15506 27.328ZM11.1443 9.84049C12.4386 9.16835 13.5473 7.58233 13.7504 6.07886C12.7637 6.32059 11.6609 7.90661 11.1443 9.84049ZM16.8673 9.84049C16.3507 7.90661 15.2479 6.32059 14.2612 6.07886C14.4701 7.58233 15.573 9.16835 16.8673 9.84049ZM23.3565 21.2669C23.3565 22.6937 24.1343 24.2738 25.2604 25.1464C25.301 25.0049 25.33 24.8575 25.33 24.6925C25.33 23.6842 24.5638 22.2751 23.374 21.0782C23.374 21.1431 23.3565 21.202 23.3565 21.2669ZM20.4718 26.0426C22.3698 26.5379 24.2562 26.3551 24.9701 25.6004C23.6003 25.0521 21.7139 25.2408 20.4718 26.0426ZM3.04146 25.6063C3.75539 26.361 5.64179 26.5438 7.5398 26.0426C6.29768 25.2467 4.41127 25.058 3.04146 25.6063ZM4.65506 21.2728C4.65506 21.2079 4.64345 21.1431 4.63764 21.0782C3.44776 22.2692 2.68159 23.6842 2.68159 24.6925C2.68159 24.8575 2.71061 25.0108 2.75124 25.1464C3.87728 24.2738 4.65506 22.6996 4.65506 21.2728Z" fill="#8C191C"/>
<path d="M13.112 18.4781L12.6128 17.8296C12.4793 17.9888 12.369 18.1716 12.2993 18.372L13.1178 18.4781H13.112Z" fill="#8C191C"/>
<path d="M12.4851 17.6703L10.5871 15.2117C9.21725 14.8108 7.85324 14.6398 6.64014 14.6752C7.21476 15.7895 8.05058 16.9275 9.10117 17.9534L12.0904 18.3484C12.1775 18.0949 12.3109 17.8708 12.4793 17.6703H12.4851Z" fill="#8C191C"/>
<path d="M12.1775 18.9971C12.1775 19.2152 12.2239 19.4216 12.2935 19.6161L12.9901 19.174L12.1775 18.9971Z" fill="#8C191C"/>
<path d="M11.9801 18.997C11.9801 18.997 11.9801 18.9676 11.9801 18.9558L8.95606 18.2954C7.64428 18.8673 6.48922 19.6161 5.57214 20.4239C6.7272 20.9073 8.09702 21.2434 9.55971 21.3495L12.1194 19.7222C12.0323 19.4982 11.9801 19.2506 11.9801 18.997Z" fill="#8C191C"/>
<path d="M13.0887 20.5772L13.3383 19.7871L12.607 20.1703C12.7405 20.3354 12.903 20.471 13.0887 20.5772Z" fill="#8C191C"/>
<path d="M12.4328 20.2588L9.67578 21.7033C9.03731 22.9827 8.63101 24.3034 8.45688 25.5121C9.65257 25.1407 10.9237 24.5098 12.1136 23.649L13.0307 20.7658C12.7985 20.6361 12.5954 20.4651 12.4328 20.2588Z" fill="#8C191C"/>
<path d="M14.8939 18.4782L15.7239 18.3662C15.6484 18.1657 15.5381 17.983 15.4046 17.8179L14.8997 18.4782H14.8939Z" fill="#8C191C"/>
<path d="M17.3259 15.3179L15.5207 17.6645C15.6949 17.8591 15.8284 18.089 15.9154 18.3425L19.0439 17.9239C20.0597 16.9511 20.8723 15.8662 21.4469 14.8049C20.1816 14.7401 18.7537 14.9052 17.3259 15.312V15.3179Z" fill="#8C191C"/>
<path d="M14.3599 18.0242L14.9171 17.4169C14.7371 17.3108 14.5398 17.2341 14.325 17.1987L14.3599 18.0242Z" fill="#8C191C"/>
<path d="M17.0008 11.0139C15.9967 11.7745 15.0099 12.8122 14.1857 14.0386L14.3134 17.0042C14.5804 17.0455 14.83 17.1339 15.0506 17.2695L17.1633 14.9524C17.3143 13.5492 17.2446 12.1931 17.0008 11.0139Z" fill="#8C191C"/>
<path d="M13.0945 17.4169L13.6517 18.0242L13.6866 17.1987C13.4718 17.2341 13.2744 17.3166 13.0945 17.4169Z" fill="#8C191C"/>
<path d="M13.6924 17.0043L13.8201 13.8912C13.0307 12.712 12.1078 11.7156 11.1559 10.9609C10.8773 12.1873 10.7902 13.6023 10.9353 15.0645L12.961 17.2755C13.1816 17.1399 13.4312 17.0515 13.6924 17.0102V17.0043Z" fill="#8C191C"/>
<path d="M15.7239 19.622C15.7935 19.4275 15.84 19.2211 15.84 18.9971L15.0215 19.1798L15.7239 19.6279V19.622Z" fill="#8C191C"/>
<path d="M18.9221 18.3191L16.0315 18.9559C16.0315 18.9559 16.0315 18.9853 16.0315 19.003C16.0315 19.2624 15.9793 19.5042 15.8922 19.7341L18.5564 21.4263C19.961 21.3319 21.2844 21.0253 22.4046 20.5831C21.4702 19.7223 20.2745 18.9264 18.9163 18.325L18.9221 18.3191Z" fill="#8C191C"/>
<path d="M15.4046 20.1703L14.6675 19.7871L14.9171 20.5831C15.1028 20.4769 15.2653 20.3354 15.4046 20.1762V20.1703Z" fill="#8C191C"/>
<path d="M18.1849 21.6207L15.5846 20.2646C15.4163 20.471 15.2131 20.642 14.9809 20.7717L15.9328 23.7728C17.0763 24.61 18.2952 25.235 19.4444 25.6182C19.2993 24.498 18.4461 22.2752 18.1849 21.6266V21.6207Z" fill="#8C191C"/>
<path d="M14.325 20.8012L14.0058 20.0288L13.6866 20.8012C13.791 20.8189 13.8955 20.8366 14.0058 20.8366C14.1161 20.8366 14.2206 20.8248 14.3192 20.8071L14.325 20.8012Z" fill="#8C191C"/>
<path d="M14.0058 21.0313C13.8665 21.0313 13.7388 21.0195 13.6053 20.99L12.4154 23.8731C12.7521 25.2587 13.2861 26.5263 13.9246 27.564C14.6037 26.5027 15.1783 25.1997 15.5382 23.767L14.3947 20.99C14.267 21.0136 14.1335 21.0313 14 21.0313H14.0058Z" fill="#8C191C"/>
<path d="M5.03815 19.003C5.03815 14.0562 9.06054 10.0352 14.0116 10.0352C18.9627 10.0352 22.9851 14.0562 22.9851 19.003C22.9851 23.9497 18.9627 27.9707 14.0116 27.9707C9.06054 27.9707 5.03815 23.9438 5.03815 19.003ZM4.64926 19.003C4.64926 24.1678 8.85158 28.3658 14.0116 28.3658C19.1716 28.3658 23.374 24.1619 23.374 19.003C23.374 13.844 19.1716 9.64014 14.0116 9.64014C8.85158 9.64014 4.64926 13.8381 4.64926 19.003Z" fill="#8C191C"/>
<path d="M15.8748 18.9971C15.8748 20.023 15.0448 20.8544 14.0174 20.8544C12.9901 20.8544 12.16 20.023 12.16 18.9971C12.16 17.9712 12.9959 17.1399 14.0174 17.1399C15.039 17.1399 15.8748 17.9712 15.8748 18.9971Z" fill="#8C191C"/>
</g>
<path d="M35.3125 7.25H43.3594C45.0885 7.25 46.5625 7.51042 47.7812 8.03125C49 8.55208 49.9323 9.32292 50.5781 10.3438C51.2344 11.3542 51.5625 12.6042 51.5625 14.0938C51.5625 15.2292 51.3542 16.2292 50.9375 17.0938C50.5208 17.9583 49.9323 18.6875 49.1719 19.2812C48.4115 19.8646 47.5052 20.3177 46.4531 20.6406L45.2656 21.2188H38.0312L38 18.1094H43.4219C44.3594 18.1094 45.1406 17.9427 45.7656 17.6094C46.3906 17.276 46.8594 16.8229 47.1719 16.25C47.4948 15.6667 47.6562 15.0104 47.6562 14.2812C47.6562 13.4896 47.5 12.8021 47.1875 12.2188C46.8854 11.625 46.4167 11.1719 45.7812 10.8594C45.1458 10.5365 44.3385 10.375 43.3594 10.375H39.2344V30H35.3125V7.25ZM48.2969 30L42.9531 19.7812L47.0625 19.7656L52.4844 29.7969V30H48.2969ZM59.0312 11.7969V30H55.25V11.7969H59.0312ZM70.5312 15.5312L65.0625 30H61.25L68.5781 11.7969H71.1094L70.5312 15.5312ZM75.5781 30L70.0781 15.5L69.5 11.7969H72.0781L79.3906 30H75.5781ZM75.3438 23.25V26.0781H64.9375V23.25H75.3438ZM93.8125 27.0156V30H83.9531V27.0156H93.8125ZM85.1406 11.7969V30H81.375V11.7969H85.1406ZM103.641 11.7969V30H99.875V11.7969H103.641ZM109.703 11.7969V14.7969H93.8906V11.7969H109.703ZM128.031 20.4688V21.3438C128.031 22.7292 127.833 23.9688 127.438 25.0625C127.042 26.1562 126.479 27.0938 125.75 27.875C125.031 28.6458 124.167 29.2344 123.156 29.6406C122.146 30.0469 121.031 30.25 119.812 30.25C118.594 30.25 117.479 30.0469 116.469 29.6406C115.458 29.2344 114.583 28.6458 113.844 27.875C113.104 27.0938 112.531 26.1562 112.125 25.0625C111.729 23.9688 111.531 22.7292 111.531 21.3438V20.4688C111.531 19.0833 111.729 17.8438 112.125 16.75C112.531 15.6562 113.099 14.7188 113.828 13.9375C114.557 13.1562 115.427 12.5625 116.438 12.1562C117.448 11.75 118.562 11.5469 119.781 11.5469C121.01 11.5469 122.125 11.75 123.125 12.1562C124.135 12.5625 125.005 13.1562 125.734 13.9375C126.474 14.7188 127.042 15.6562 127.438 16.75C127.833 17.8438 128.031 19.0833 128.031 20.4688ZM124.266 21.3438V20.4375C124.266 19.4896 124.167 18.651 123.969 17.9219C123.771 17.1927 123.474 16.5781 123.078 16.0781C122.693 15.5781 122.224 15.1979 121.672 14.9375C121.12 14.6771 120.49 14.5469 119.781 14.5469C119.083 14.5469 118.453 14.6771 117.891 14.9375C117.339 15.1979 116.87 15.5781 116.484 16.0781C116.109 16.5781 115.818 17.1927 115.609 17.9219C115.411 18.651 115.312 19.4896 115.312 20.4375V21.3438C115.312 22.2812 115.411 23.1198 115.609 23.8594C115.818 24.5885 116.115 25.2083 116.5 25.7188C116.896 26.2188 117.37 26.6042 117.922 26.875C118.484 27.1354 119.115 27.2656 119.812 27.2656C120.521 27.2656 121.146 27.1354 121.688 26.875C122.24 26.6042 122.708 26.2188 123.094 25.7188C123.479 25.2083 123.771 24.5885 123.969 23.8594C124.167 23.1198 124.266 22.2812 124.266 21.3438Z" fill="#2E2D29"/>
<line x1="140.5" y1="5" x2="140.5" y2="33" stroke="black"/>
<path d="M159.109 30H153.953L153.984 28.3594H159.109C160.745 28.3594 162.151 27.9948 163.328 27.2656C164.516 26.526 165.432 25.5052 166.078 24.2031C166.724 22.901 167.047 21.3906 167.047 19.6719V17.5469C167.047 16.2344 166.859 15.0469 166.484 13.9844C166.12 12.9219 165.594 12.0156 164.906 11.2656C164.219 10.5052 163.396 9.92188 162.438 9.51562C161.49 9.10938 160.427 8.90625 159.25 8.90625H153.859V7.25H159.25C160.667 7.25 161.964 7.49479 163.141 7.98438C164.328 8.46354 165.354 9.16146 166.219 10.0781C167.094 10.9844 167.766 12.0729 168.234 13.3438C168.714 14.6146 168.953 16.0312 168.953 17.5938V19.6719C168.953 21.2344 168.714 22.651 168.234 23.9219C167.766 25.1927 167.094 26.2812 166.219 27.1875C165.344 28.0938 164.307 28.7917 163.109 29.2812C161.911 29.7604 160.578 30 159.109 30ZM154.812 7.25V30H152.891V7.25H154.812ZM183.703 26.9688V18.25C183.703 17.4479 183.536 16.7552 183.203 16.1719C182.87 15.5885 182.38 15.1406 181.734 14.8281C181.089 14.5156 180.292 14.3594 179.344 14.3594C178.469 14.3594 177.688 14.5156 177 14.8281C176.323 15.1302 175.786 15.5417 175.391 16.0625C175.005 16.5729 174.812 17.1406 174.812 17.7656L172.938 17.75C172.938 17.1146 173.094 16.5 173.406 15.9062C173.719 15.3125 174.161 14.7812 174.734 14.3125C175.307 13.8438 175.99 13.474 176.781 13.2031C177.583 12.9219 178.464 12.7812 179.422 12.7812C180.63 12.7812 181.693 12.9844 182.609 13.3906C183.536 13.7969 184.26 14.4062 184.781 15.2188C185.302 16.0312 185.562 17.0521 185.562 18.2812V26.4531C185.562 27.0365 185.604 27.6406 185.688 28.2656C185.781 28.8906 185.911 29.4062 186.078 29.8125V30H184.094C183.969 29.625 183.87 29.1562 183.797 28.5938C183.734 28.0208 183.703 27.4792 183.703 26.9688ZM184.141 20.1562L184.172 21.5938H180.5C179.542 21.5938 178.682 21.6823 177.922 21.8594C177.172 22.026 176.536 22.276 176.016 22.6094C175.495 22.9323 175.094 23.3229 174.812 23.7812C174.542 24.2396 174.406 24.7604 174.406 25.3438C174.406 25.9479 174.557 26.5 174.859 27C175.172 27.5 175.609 27.901 176.172 28.2031C176.745 28.4948 177.422 28.6406 178.203 28.6406C179.245 28.6406 180.161 28.4479 180.953 28.0625C181.755 27.6771 182.417 27.1719 182.938 26.5469C183.458 25.9219 183.807 25.2396 183.984 24.5L184.797 25.5781C184.661 26.099 184.411 26.6354 184.047 27.1875C183.693 27.7292 183.229 28.2396 182.656 28.7188C182.083 29.1875 181.406 29.5729 180.625 29.875C179.854 30.1667 178.979 30.3125 178 30.3125C176.896 30.3125 175.932 30.1042 175.109 29.6875C174.297 29.2708 173.661 28.7031 173.203 27.9844C172.755 27.2552 172.531 26.4323 172.531 25.5156C172.531 24.6823 172.708 23.9375 173.062 23.2812C173.417 22.6146 173.927 22.0521 174.594 21.5938C175.271 21.125 176.083 20.7708 177.031 20.5312C177.99 20.2812 179.062 20.1562 180.25 20.1562H184.141ZM196.969 13.0938V14.625H188.5V13.0938H196.969ZM191.609 8.75H193.469V25.8906C193.469 26.6719 193.573 27.2604 193.781 27.6562C193.99 28.0521 194.26 28.3177 194.594 28.4531C194.927 28.5885 195.286 28.6562 195.672 28.6562C195.953 28.6562 196.224 28.6406 196.484 28.6094C196.745 28.5677 196.979 28.526 197.188 28.4844L197.266 30.0625C197.036 30.1354 196.74 30.1927 196.375 30.2344C196.01 30.2865 195.646 30.3125 195.281 30.3125C194.562 30.3125 193.927 30.1823 193.375 29.9219C192.823 29.651 192.391 29.1927 192.078 28.5469C191.766 27.8906 191.609 27 191.609 25.875V8.75ZM211.172 26.9688V18.25C211.172 17.4479 211.005 16.7552 210.672 16.1719C210.339 15.5885 209.849 15.1406 209.203 14.8281C208.557 14.5156 207.76 14.3594 206.812 14.3594C205.938 14.3594 205.156 14.5156 204.469 14.8281C203.792 15.1302 203.255 15.5417 202.859 16.0625C202.474 16.5729 202.281 17.1406 202.281 17.7656L200.406 17.75C200.406 17.1146 200.562 16.5 200.875 15.9062C201.188 15.3125 201.63 14.7812 202.203 14.3125C202.776 13.8438 203.458 13.474 204.25 13.2031C205.052 12.9219 205.932 12.7812 206.891 12.7812C208.099 12.7812 209.161 12.9844 210.078 13.3906C211.005 13.7969 211.729 14.4062 212.25 15.2188C212.771 16.0312 213.031 17.0521 213.031 18.2812V26.4531C213.031 27.0365 213.073 27.6406 213.156 28.2656C213.25 28.8906 213.38 29.4062 213.547 29.8125V30H211.562C211.438 29.625 211.339 29.1562 211.266 28.5938C211.203 28.0208 211.172 27.4792 211.172 26.9688ZM211.609 20.1562L211.641 21.5938H207.969C207.01 21.5938 206.151 21.6823 205.391 21.8594C204.641 22.026 204.005 22.276 203.484 22.6094C202.964 22.9323 202.562 23.3229 202.281 23.7812C202.01 24.2396 201.875 24.7604 201.875 25.3438C201.875 25.9479 202.026 26.5 202.328 27C202.641 27.5 203.078 27.901 203.641 28.2031C204.214 28.4948 204.891 28.6406 205.672 28.6406C206.714 28.6406 207.63 28.4479 208.422 28.0625C209.224 27.6771 209.885 27.1719 210.406 26.5469C210.927 25.9219 211.276 25.2396 211.453 24.5L212.266 25.5781C212.13 26.099 211.88 26.6354 211.516 27.1875C211.161 27.7292 210.698 28.2396 210.125 28.7188C209.552 29.1875 208.875 29.5729 208.094 29.875C207.323 30.1667 206.448 30.3125 205.469 30.3125C204.365 30.3125 203.401 30.1042 202.578 29.6875C201.766 29.2708 201.13 28.7031 200.672 27.9844C200.224 27.2552 200 26.4323 200 25.5156C200 24.6823 200.177 23.9375 200.531 23.2812C200.885 22.6146 201.396 22.0521 202.062 21.5938C202.74 21.125 203.552 20.7708 204.5 20.5312C205.458 20.2812 206.531 20.1562 207.719 20.1562H211.609ZM237.547 28.2031L242.75 32.7656L241.438 33.9844L236.266 29.4688L237.547 28.2031ZM243.031 17.4062V19.8438C243.031 21.4375 242.823 22.8802 242.406 24.1719C241.99 25.4531 241.396 26.5521 240.625 27.4688C239.854 28.3854 238.922 29.0885 237.828 29.5781C236.745 30.0677 235.531 30.3125 234.188 30.3125C232.865 30.3125 231.656 30.0677 230.562 29.5781C229.479 29.0885 228.542 28.3854 227.75 27.4688C226.969 26.5521 226.365 25.4531 225.938 24.1719C225.521 22.8802 225.312 21.4375 225.312 19.8438V17.4062C225.312 15.8125 225.521 14.375 225.938 13.0938C226.365 11.8021 226.969 10.6979 227.75 9.78125C228.531 8.86458 229.464 8.16146 230.547 7.67188C231.63 7.18229 232.833 6.9375 234.156 6.9375C235.5 6.9375 236.714 7.18229 237.797 7.67188C238.891 8.16146 239.828 8.86458 240.609 9.78125C241.391 10.6979 241.99 11.8021 242.406 13.0938C242.823 14.375 243.031 15.8125 243.031 17.4062ZM241.125 19.8438V17.375C241.125 16.0312 240.969 14.8229 240.656 13.75C240.344 12.6771 239.885 11.7604 239.281 11C238.688 10.2396 237.958 9.65625 237.094 9.25C236.24 8.84375 235.26 8.64062 234.156 8.64062C233.083 8.64062 232.12 8.84375 231.266 9.25C230.411 9.65625 229.682 10.2396 229.078 11C228.474 11.7604 228.01 12.6771 227.688 13.75C227.375 14.8229 227.219 16.0312 227.219 17.375V19.8438C227.219 21.1979 227.38 22.4167 227.703 23.5C228.026 24.5729 228.49 25.4948 229.094 26.2656C229.698 27.026 230.427 27.6094 231.281 28.0156C232.146 28.4219 233.115 28.625 234.188 28.625C235.292 28.625 236.271 28.4219 237.125 28.0156C237.99 27.6094 238.719 27.026 239.312 26.2656C239.906 25.4948 240.354 24.5729 240.656 23.5C240.969 22.4167 241.125 21.1979 241.125 19.8438ZM258.344 26.0938V13.0938H260.219V30H258.422L258.344 26.0938ZM258.688 22.9688L259.656 22.9375C259.656 24 259.531 24.9792 259.281 25.875C259.031 26.7708 258.641 27.5521 258.109 28.2188C257.578 28.8854 256.891 29.401 256.047 29.7656C255.203 30.1302 254.188 30.3125 253 30.3125C252.177 30.3125 251.422 30.1979 250.734 29.9688C250.057 29.7292 249.474 29.3542 248.984 28.8438C248.495 28.3333 248.115 27.6719 247.844 26.8594C247.583 26.0469 247.453 25.0625 247.453 23.9062V13.0938H249.312V23.9375C249.312 24.8438 249.411 25.599 249.609 26.2031C249.818 26.8073 250.099 27.2917 250.453 27.6562C250.818 28.0208 251.234 28.2812 251.703 28.4375C252.172 28.5938 252.677 28.6719 253.219 28.6719C254.594 28.6719 255.677 28.4062 256.469 27.875C257.271 27.3438 257.839 26.6458 258.172 25.7812C258.516 24.9062 258.688 23.9688 258.688 22.9688ZM275.391 26.9688V18.25C275.391 17.4479 275.224 16.7552 274.891 16.1719C274.557 15.5885 274.068 15.1406 273.422 14.8281C272.776 14.5156 271.979 14.3594 271.031 14.3594C270.156 14.3594 269.375 14.5156 268.688 14.8281C268.01 15.1302 267.474 15.5417 267.078 16.0625C266.693 16.5729 266.5 17.1406 266.5 17.7656L264.625 17.75C264.625 17.1146 264.781 16.5 265.094 15.9062C265.406 15.3125 265.849 14.7812 266.422 14.3125C266.995 13.8438 267.677 13.474 268.469 13.2031C269.271 12.9219 270.151 12.7812 271.109 12.7812C272.318 12.7812 273.38 12.9844 274.297 13.3906C275.224 13.7969 275.948 14.4062 276.469 15.2188C276.99 16.0312 277.25 17.0521 277.25 18.2812V26.4531C277.25 27.0365 277.292 27.6406 277.375 28.2656C277.469 28.8906 277.599 29.4062 277.766 29.8125V30H275.781C275.656 29.625 275.557 29.1562 275.484 28.5938C275.422 28.0208 275.391 27.4792 275.391 26.9688ZM275.828 20.1562L275.859 21.5938H272.188C271.229 21.5938 270.37 21.6823 269.609 21.8594C268.859 22.026 268.224 22.276 267.703 22.6094C267.182 22.9323 266.781 23.3229 266.5 23.7812C266.229 24.2396 266.094 24.7604 266.094 25.3438C266.094 25.9479 266.245 26.5 266.547 27C266.859 27.5 267.297 27.901 267.859 28.2031C268.432 28.4948 269.109 28.6406 269.891 28.6406C270.932 28.6406 271.849 28.4479 272.641 28.0625C273.443 27.6771 274.104 27.1719 274.625 26.5469C275.146 25.9219 275.495 25.2396 275.672 24.5L276.484 25.5781C276.349 26.099 276.099 26.6354 275.734 27.1875C275.38 27.7292 274.917 28.2396 274.344 28.7188C273.771 29.1875 273.094 29.5729 272.312 29.875C271.542 30.1667 270.667 30.3125 269.688 30.3125C268.583 30.3125 267.62 30.1042 266.797 29.6875C265.984 29.2708 265.349 28.7031 264.891 27.9844C264.443 27.2552 264.219 26.4323 264.219 25.5156C264.219 24.6823 264.396 23.9375 264.75 23.2812C265.104 22.6146 265.615 22.0521 266.281 21.5938C266.958 21.125 267.771 20.7708 268.719 20.5312C269.677 20.2812 270.75 20.1562 271.938 20.1562H275.828ZM284.344 6V30H282.484V6H284.344ZM291.531 13.0938V30H289.672V13.0938H291.531ZM289.344 8.20312C289.344 7.84896 289.453 7.55208 289.672 7.3125C289.901 7.0625 290.214 6.9375 290.609 6.9375C291.005 6.9375 291.318 7.0625 291.547 7.3125C291.786 7.55208 291.906 7.84896 291.906 8.20312C291.906 8.54688 291.786 8.84375 291.547 9.09375C291.318 9.33333 291.005 9.45312 290.609 9.45312C290.214 9.45312 289.901 9.33333 289.672 9.09375C289.453 8.84375 289.344 8.54688 289.344 8.20312ZM303.031 13.0938V14.625H294.562V13.0938H303.031ZM297.672 8.75H299.531V25.8906C299.531 26.6719 299.635 27.2604 299.844 27.6562C300.052 28.0521 300.323 28.3177 300.656 28.4531C300.99 28.5885 301.349 28.6562 301.734 28.6562C302.016 28.6562 302.286 28.6406 302.547 28.6094C302.807 28.5677 303.042 28.526 303.25 28.4844L303.328 30.0625C303.099 30.1354 302.802 30.1927 302.438 30.2344C302.073 30.2865 301.708 30.3125 301.344 30.3125C300.625 30.3125 299.99 30.1823 299.438 29.9219C298.885 29.651 298.453 29.1927 298.141 28.5469C297.828 27.8906 297.672 27 297.672 25.875V8.75ZM311.969 28.3125L317.234 13.0938H319.25L312.094 32.7188C311.948 33.1042 311.76 33.5312 311.531 34C311.312 34.4688 311.021 34.9167 310.656 35.3438C310.302 35.7812 309.854 36.1354 309.312 36.4062C308.781 36.6875 308.13 36.8281 307.359 36.8281C307.161 36.8281 306.906 36.8021 306.594 36.75C306.292 36.7083 306.073 36.6667 305.938 36.625L305.922 35.0469C306.036 35.0781 306.203 35.1042 306.422 35.125C306.641 35.1458 306.792 35.1562 306.875 35.1562C307.552 35.1562 308.12 35.0417 308.578 34.8125C309.047 34.5833 309.438 34.2396 309.75 33.7812C310.062 33.3333 310.339 32.7708 310.578 32.0938L311.969 28.3125ZM307.047 13.0938L312.438 27.6094L312.938 29.5625L311.578 30.3281L305.016 13.0938H307.047Z" fill="black"/>
<defs>
<clipPath id="clip0_632_3415">
<rect width="28" height="28" fill="white" transform="translate(0 5)"/>
</clipPath>
</defs>
</svg>
